<svg
    width="43"
    height="52"
    viewBox="0 0 43 52"
    fill="none"
    xmlns="http://www.w3.org/2000/svg"
>
    <path
    d="M14.375 0.333313H38.125C39.3848 0.333313 40.593 0.824978 41.4838 1.70015C42.3746 2.57532 42.875 3.7623 42.875 4.99998V42.3333L38.125 40.3033V4.99998H9.625C9.625 3.7623 10.1254 2.57532 11.0162 1.70015C11.907 0.824978 13.1152 0.333313 14.375 0.333313ZM28.625 44.6666V14.3333H4.875V44.6666L16.75 39.58L28.625 44.6666ZM28.625 9.66665C31.2612 9.66665 33.375 11.7666 33.375 14.3333V51.6666L16.75 44.6666L0.125 51.6666V14.3333C0.125 13.0956 0.625445 11.9087 1.51624 11.0335C2.40704 10.1583 3.61522 9.66665 4.875 9.66665H28.625Z"
    fill="#3E3E3E"
    />
</svg>