<svg
    width="21"
    height="17"
    viewBox="0 0 21 17"
    fill="none"
    xmlns="http://www.w3.org/2000/svg"
>
    <path
    d="M5.10811 0.566667H21V2.83333H5.10811V0.566667ZM5.10811 9.63333V7.36667H21V9.63333H5.10811ZM1.7027 0C2.15429 0 2.58738 0.179106 2.9067 0.497918C3.22601 0.81673 3.40541 1.24913 3.40541 1.7C3.40541 2.15087 3.22601 2.58327 2.9067 2.90208C2.58738 3.22089 2.15429 3.4 1.7027 3.4C1.25112 3.4 0.818029 3.22089 0.49871 2.90208C0.179391 2.58327 0 2.15087 0 1.7C0 1.24913 0.179391 0.81673 0.49871 0.497918C0.818029 0.179106 1.25112 0 1.7027 0ZM1.7027 6.8C2.15429 6.8 2.58738 6.97911 2.9067 7.29792C3.22601 7.61673 3.40541 8.04913 3.40541 8.5C3.40541 8.95087 3.22601 9.38327 2.9067 9.70208C2.58738 10.0209 2.15429 10.2 1.7027 10.2C1.25112 10.2 0.818029 10.0209 0.49871 9.70208C0.179391 9.38327 0 8.95087 0 8.5C0 8.04913 0.179391 7.61673 0.49871 7.29792C0.818029 6.97911 1.25112 6.8 1.7027 6.8ZM5.10811 16.4333V14.1667H21V16.4333H5.10811ZM1.7027 13.6C2.15429 13.6 2.58738 13.7791 2.9067 14.0979C3.22601 14.4167 3.40541 14.8491 3.40541 15.3C3.40541 15.7509 3.22601 16.1833 2.9067 16.5021C2.58738 16.8209 2.15429 17 1.7027 17C1.25112 17 0.818029 16.8209 0.49871 16.5021C0.179391 16.1833 0 15.7509 0 15.3C0 14.8491 0.179391 14.4167 0.49871 14.0979C0.818029 13.7791 1.25112 13.6 1.7027 13.6Z"
    fill="#3E3E3E"
    />
</svg>